<svg xmlns="http://www.w3.org/2000/svg" viewBox="0 0 512 512"><g fill="#2f2f2f"><path d="M450.9 73.5H332.5V21.4c0-5.8-4.7-10.4-10.4-10.4H189.9c-5.8 0-10.4 4.7-10.4 10.4v52.1H61.1c-5.8 0-10.4 4.7-10.4 10.4v64.9c0 5.8 4.7 10.4 10.4 10.4h24.6v264.7c0 42.5 34.6 77.1 77.1 77.1h186.4c42.5 0 77.1-34.6 77.1-77.1V159.3h24.6c5.8 0 10.4-4.7 10.4-10.4v-65c0-5.7-4.7-10.4-10.4-10.4M200.4 31.9h111.3v41.7H200.4zm205 392c0 31-25.2 56.2-56.2 56.2H162.8c-31 0-56.2-25.2-56.2-56.2V159.3h298.8zm35-285.5H71.6v-44h368.9v44z"/><path d="M164.1 427c5.8 0 10.4-4.7 10.4-10.4V222.9c0-5.8-4.7-10.4-10.4-10.4-5.8 0-10.4 4.7-10.4 10.4v193.7c0 5.7 4.7 10.4 10.4 10.4m91.9 0c5.8 0 10.4-4.7 10.4-10.4V222.9c0-5.8-4.7-10.4-10.4-10.4s-10.4 4.7-10.4 10.4v193.7c0 5.7 4.6 10.4 10.4 10.4m91.9 0c5.8 0 10.4-4.7 10.4-10.4V222.9c0-5.8-4.7-10.4-10.4-10.4-5.8 0-10.4 4.7-10.4 10.4v193.7c-.1 5.7 4.6 10.4 10.4 10.4"/></g></svg>
